<svg
   inkscape:export-ydpi="96"
   inkscape:export-xdpi="96"
   inkscape:export-filename="blender_icons.png"
   style="display:inline;enable-background:new"
   inkscape:output_extension="org.inkscape.output.svg.inkscape"
   sodipodi:docname="blender_icons.svg"
   version="1.0"
   inkscape:version="1.2 (dc2aeda, 2022-05-15)"
   sodipodi:version="0.32"
   id="svg2"
   height="13.999992"
   width="13.999716"
   xmlns:inkscape="http://www.inkscape.org/namespaces/inkscape"
   xmlns:sodipodi="http://sodipodi.sourceforge.net/DTD/sodipodi-0.dtd"
   xmlns="http://www.w3.org/2000/svg"
   xmlns:svg="http://www.w3.org/2000/svg"
   xmlns:rdf="http://www.w3.org/1999/02/22-rdf-syntax-ns#"
   xmlns:cc="http://creativecommons.org/ns#"
   xmlns:dc="http://purl.org/dc/elements/1.1/">
  <metadata
     id="metadata34337">
    <rdf:RDF>
      <cc:Work
         rdf:about="">
        <dc:format>image/svg+xml</dc:format>
        <dc:type
           rdf:resource="http://purl.org/dc/dcmitype/StillImage" />
        <dc:title />
      </cc:Work>
    </rdf:RDF>
  </metadata>
  <sodipodi:namedview
     inkscape:pagecheckerboard="true"
     inkscape:document-rotation="0"
     pagecolor="#808080"
     bordercolor="#666666"
     borderopacity="1"
     objecttolerance="10"
     gridtolerance="10"
     guidetolerance="10"
     inkscape:pageopacity="0"
     inkscape:pageshadow="2"
     inkscape:window-width="1728"
     inkscape:window-height="1051"
     id="namedview34335"
     showgrid="false"
     inkscape:zoom="1.7115805"
     inkscape:cx="217.6351"
     inkscape:cy="369.54148"
     inkscape:window-x="767"
     inkscape:window-y="92"
     inkscape:window-maximized="0"
     inkscape:current-layer="layer4"
     inkscape:showpageshadow="2"
     inkscape:deskcolor="#808080" />
  <defs
     id="defs4" />
  <g
     inkscape:groupmode="layer"
     id="layer8"
     inkscape:label="icons"
     style="display:inline"
     transform="translate(-173.99987,-179.00014)">
    <g
       style="display:inline;fill:#ffffff;enable-background:new"
       id="g12992"
       transform="translate(2.62972e-6,-21)"
       inkscape:export-filename="blender_icons.png"
       inkscape:export-xdpi="96"
       inkscape:export-ydpi="96"
       inkscape:label="I-9">
      <path
         id="path12908"
         style="color:#000000;font-style:normal;font-variant:normal;font-weight:normal;font-stretch:normal;font-size:medium;line-height:normal;font-family:sans-serif;font-variant-ligatures:normal;font-variant-position:normal;font-variant-caps:normal;font-variant-numeric:normal;font-variant-alternates:normal;font-feature-settings:normal;text-indent:0;text-align:start;text-decoration:none;text-decoration-line:none;text-decoration-style:solid;text-decoration-color:#000000;letter-spacing:normal;word-spacing:normal;text-transform:none;writing-mode:lr-tb;direction:ltr;text-orientation:mixed;dominant-baseline:auto;baseline-shift:baseline;text-anchor:start;white-space:normal;shape-padding:0;clip-rule:nonzero;display:inline;overflow:visible;visibility:visible;opacity:1;isolation:auto;mix-blend-mode:normal;color-interpolation:sRGB;color-interpolation-filters:linearRGB;solid-color:#000000;solid-opacity:1;vector-effect:none;fill:#ffffff;fill-opacity:1;fill-rule:nonzero;stroke:none;stroke-width:1;stroke-linecap:round;stroke-linejoin:round;stroke-miterlimit:4;stroke-dasharray:none;stroke-dashoffset:0;stroke-opacity:1;color-rendering:auto;image-rendering:auto;shape-rendering:auto;text-rendering:auto;enable-background:new"
         d="m 183.8125,200.01562 c 2.21359,0.18235 3.97803,1.94071 4.16992,4.1543 0.19189,2.2136 -1.24344,4.25155 -3.39258,4.8125 a 0.5007349,0.5007349 0 1 1 -0.2539,-0.96875 c 1.68376,-0.43948 2.80079,-2.02289 2.65039,-3.75781 -0.1504,-1.73492 -1.52164,-3.10129 -3.25586,-3.24414 -1.73423,-0.14285 -3.31219,0.98104 -3.74414,2.66797 a 0.50005,0.50005 0 1 1 -0.96875,-0.24805 c 0.55114,-2.15241 2.58133,-3.59836 4.79492,-3.41602 z M 178.5,205 a 0.50005,0.50005 0 1 1 0,1 c -1.41705,0 -2.69209,0.85096 -3.23438,2.16016 -0.54228,1.30919 -0.24224,2.81243 0.75977,3.81445 1.00201,1.00201 2.50527,1.30205 3.81445,0.75977 C 181.14903,212.19209 182,210.91706 182,209.5 a 0.50005,0.50005 0 1 1 1,0 c 0,1.81865 -1.09714,3.46223 -2.77734,4.1582 -1.68021,0.69597 -3.61833,0.30942 -4.9043,-0.97656 -1.28598,-1.28598 -1.67253,-3.22408 -0.97656,-4.9043 C 175.03776,206.09713 176.68136,205 178.5,205 Z"
         inkscape:connector-curvature="0" />
      <path
         style="opacity:1;vector-effect:none;fill:#ffffff;fill-opacity:1;stroke:none;stroke-width:1;stroke-linecap:square;stroke-linejoin:round;stroke-miterlimit:4;stroke-dasharray:none;stroke-dashoffset:0;stroke-opacity:1;marker:none;paint-order:fill markers stroke"
         d="M 182.99634,206.50183 A 1.4981741,1.4981725 0 0 1 181.49817,208 a 1.4981741,1.4981725 0 0 1 -1.49818,-1.49817 1.4981741,1.4981725 0 0 1 1.49818,-1.49817 1.4981741,1.4981725 0 0 1 1.49817,1.49817 z"
         id="circle12958"
         inkscape:connector-curvature="0" />
    </g>
  </g>
</svg>
