<svg
   inkscape:export-ydpi="96"
   inkscape:export-xdpi="96"
   inkscape:export-filename="blender_icons.png"
   style="display:inline;enable-background:new"
   inkscape:output_extension="org.inkscape.output.svg.inkscape"
   sodipodi:docname="blender_icons.svg"
   version="1.0"
   inkscape:version="1.2 (dc2aeda, 2022-05-15)"
   sodipodi:version="0.32"
   id="svg2"
   height="14.014872"
   width="14.013996"
   xmlns:inkscape="http://www.inkscape.org/namespaces/inkscape"
   xmlns:sodipodi="http://sodipodi.sourceforge.net/DTD/sodipodi-0.dtd"
   xmlns="http://www.w3.org/2000/svg"
   xmlns:svg="http://www.w3.org/2000/svg"
   xmlns:rdf="http://www.w3.org/1999/02/22-rdf-syntax-ns#"
   xmlns:cc="http://creativecommons.org/ns#"
   xmlns:dc="http://purl.org/dc/elements/1.1/">
  <metadata
     id="metadata34337">
    <rdf:RDF>
      <cc:Work
         rdf:about="">
        <dc:format>image/svg+xml</dc:format>
        <dc:type
           rdf:resource="http://purl.org/dc/dcmitype/StillImage" />
        <dc:title />
      </cc:Work>
    </rdf:RDF>
  </metadata>
  <sodipodi:namedview
     inkscape:pagecheckerboard="true"
     inkscape:document-rotation="0"
     pagecolor="#808080"
     bordercolor="#666666"
     borderopacity="1"
     objecttolerance="10"
     gridtolerance="10"
     guidetolerance="10"
     inkscape:pageopacity="0"
     inkscape:pageshadow="2"
     inkscape:window-width="1728"
     inkscape:window-height="1051"
     id="namedview34335"
     showgrid="false"
     inkscape:zoom="1.7115805"
     inkscape:cx="217.6351"
     inkscape:cy="369.54148"
     inkscape:window-x="767"
     inkscape:window-y="92"
     inkscape:window-maximized="0"
     inkscape:current-layer="layer4"
     inkscape:showpageshadow="2"
     inkscape:deskcolor="#808080" />
  <defs
     id="defs4" />
  <g
     inkscape:groupmode="layer"
     id="layer8"
     inkscape:label="icons"
     style="display:inline"
     transform="translate(-530.99289,-157.99215)">
    <g
       transform="translate(483,-126)"
       id="g11187"
       style="display:inline;fill:#ffffff;enable-background:new"
       inkscape:label="H-26">
      <path
         inkscape:connector-curvature="0"
         id="path10969"
         transform="translate(-483,126)"
         d="m 533.49219,157.99219 a 0.50005,0.50005 0 0 0 -0.38867,0.19531 0.50005,0.50005 0 0 0 -0.004,0.006 l -1.95313,1.95312 a 0.50005,0.50005 0 1 0 0.70704,0.70704 L 533,159.70703 v 7.57422 c -0.59355,0.34821 -1,0.9856 -1,1.71875 0,1.09865 0.90135,2 2,2 0.73315,0 1.37054,-0.40645 1.71875,-1 h 7.57422 l -1.14649,1.14648 a 0.50005,0.50005 0 1 0 0.70704,0.70704 l 1.95703,-1.95704 a 0.50005,0.50005 0 0 0 0.002,-0.79296 0.50005,0.50005 0 0 0 -0.006,-0.004 l -1.95312,-1.95313 a 0.50005,0.50005 0 0 0 -0.35938,-0.15234 0.50005,0.50005 0 0 0 -0.34766,0.85938 L 543.29297,169 H 536 c 0,-1.09865 -0.90135,-2 -2,-2 v -7.29297 l 1.14648,1.14649 a 0.50005,0.50005 0 1 0 0.70704,-0.70704 l -1.95704,-1.95703 a 0.50005,0.50005 0 0 0 -0.40429,-0.19726 z M 534,168 c 0.55821,0 1,0.44179 1,1 0,0.55821 -0.44179,1 -1,1 -0.55821,0 -1,-0.44179 -1,-1 0,-0.55821 0.44179,-1 1,-1 z"
         style="color:#000000;font-style:normal;font-variant:normal;font-weight:normal;font-stretch:normal;font-size:medium;line-height:normal;font-family:sans-serif;font-variant-ligatures:normal;font-variant-position:normal;font-variant-caps:normal;font-variant-numeric:normal;font-variant-alternates:normal;font-feature-settings:normal;text-indent:0;text-align:start;text-decoration:none;text-decoration-line:none;text-decoration-style:solid;text-decoration-color:#000000;letter-spacing:normal;word-spacing:normal;text-transform:none;writing-mode:lr-tb;direction:ltr;text-orientation:mixed;dominant-baseline:auto;baseline-shift:baseline;text-anchor:start;white-space:normal;shape-padding:0;clip-rule:nonzero;display:inline;overflow:visible;visibility:visible;opacity:1;isolation:auto;mix-blend-mode:normal;color-interpolation:sRGB;color-interpolation-filters:linearRGB;solid-color:#000000;solid-opacity:1;vector-effect:none;fill:#ffffff;fill-opacity:1;fill-rule:nonzero;stroke:none;stroke-width:1;stroke-linecap:round;stroke-linejoin:round;stroke-miterlimit:4;stroke-dasharray:none;stroke-dashoffset:0;stroke-opacity:1;marker:none;color-rendering:auto;image-rendering:auto;shape-rendering:auto;text-rendering:auto;enable-background:accumulate" />
    </g>
  </g>
</svg>
