<svg
   inkscape:export-ydpi="96"
   inkscape:export-xdpi="96"
   inkscape:export-filename="blender_icons.png"
   style="display:inline;enable-background:new"
   inkscape:output_extension="org.inkscape.output.svg.inkscape"
   sodipodi:docname="blender_icons.svg"
   version="1.0"
   inkscape:version="1.2 (dc2aeda, 2022-05-15)"
   sodipodi:version="0.32"
   id="svg2"
   height="14.012053"
   width="14.011087"
   xmlns:inkscape="http://www.inkscape.org/namespaces/inkscape"
   xmlns:sodipodi="http://sodipodi.sourceforge.net/DTD/sodipodi-0.dtd"
   xmlns="http://www.w3.org/2000/svg"
   xmlns:svg="http://www.w3.org/2000/svg"
   xmlns:rdf="http://www.w3.org/1999/02/22-rdf-syntax-ns#"
   xmlns:cc="http://creativecommons.org/ns#"
   xmlns:dc="http://purl.org/dc/elements/1.1/">
  <metadata
     id="metadata34337">
    <rdf:RDF>
      <cc:Work
         rdf:about="">
        <dc:format>image/svg+xml</dc:format>
        <dc:type
           rdf:resource="http://purl.org/dc/dcmitype/StillImage" />
        <dc:title />
      </cc:Work>
    </rdf:RDF>
  </metadata>
  <sodipodi:namedview
     inkscape:pagecheckerboard="true"
     inkscape:document-rotation="0"
     pagecolor="#808080"
     bordercolor="#666666"
     borderopacity="1"
     objecttolerance="10"
     gridtolerance="10"
     guidetolerance="10"
     inkscape:pageopacity="0"
     inkscape:pageshadow="2"
     inkscape:window-width="1728"
     inkscape:window-height="1051"
     id="namedview34335"
     showgrid="false"
     inkscape:zoom="1.7115805"
     inkscape:cx="217.6351"
     inkscape:cy="369.54148"
     inkscape:window-x="767"
     inkscape:window-y="92"
     inkscape:window-maximized="0"
     inkscape:current-layer="layer4"
     inkscape:showpageshadow="2"
     inkscape:deskcolor="#808080" />
  <defs
     id="defs4" />
  <g
     inkscape:groupmode="layer"
     id="layer8"
     inkscape:label="icons"
     style="display:inline"
     transform="translate(-425.9958,-157.99215)">
    <g
       transform="translate(1.74999e-7,23)"
       id="g21364"
       style="display:inline;fill:#ffffff;enable-background:new"
       inkscape:label="H-21">
      <g
         id="g5447"
         style="fill:#ffffff">
        <path
           style="color:#000000;font-style:normal;font-variant:normal;font-weight:normal;font-stretch:normal;font-size:medium;line-height:normal;font-family:sans-serif;font-variant-ligatures:normal;font-variant-position:normal;font-variant-caps:normal;font-variant-numeric:normal;font-variant-alternates:normal;font-feature-settings:normal;text-indent:0;text-align:start;text-decoration:none;text-decoration-line:none;text-decoration-style:solid;text-decoration-color:#000000;letter-spacing:normal;word-spacing:normal;text-transform:none;writing-mode:lr-tb;direction:ltr;text-orientation:mixed;dominant-baseline:auto;baseline-shift:baseline;text-anchor:start;white-space:normal;shape-padding:0;clip-rule:nonzero;display:inline;overflow:visible;visibility:visible;opacity:0.6;isolation:auto;mix-blend-mode:normal;color-interpolation:sRGB;color-interpolation-filters:linearRGB;solid-color:#000000;solid-opacity:1;vector-effect:none;fill:#ffffff;fill-opacity:1;fill-rule:nonzero;stroke:none;stroke-width:1;stroke-linecap:round;stroke-linejoin:round;stroke-miterlimit:4;stroke-dasharray:none;stroke-dashoffset:0;stroke-opacity:1;marker:none;color-rendering:auto;image-rendering:auto;shape-rendering:auto;text-rendering:auto;enable-background:accumulate"
           d="m 430.49219,134.99219 a 0.50005,0.50005 0 0 0 -0.38867,0.19531 0.50005,0.50005 0 0 0 -0.004,0.006 l -1.95313,1.95312 a 0.50005,0.50005 0 1 0 0.70703,0.70704 L 430,136.70703 V 140.5 a 0.50005,0.50005 0 1 0 1,0 v -3.79297 l 1.14648,1.14649 a 0.50005,0.50005 0 1 0 0.70704,-0.70704 l -1.95704,-1.95703 a 0.50005,0.50005 0 0 0 -0.40429,-0.19726 z m 7.00195,7.00195 a 0.50005,0.50005 0 0 0 -0.34766,0.85938 L 438.29297,144 H 434.5 a 0.50005,0.50005 0 1 0 0,1 h 3.79297 l -1.14649,1.14648 a 0.50005,0.50005 0 1 0 0.70704,0.70704 l 1.95703,-1.95704 a 0.50005,0.50005 0 0 0 0.002,-0.79296 0.50005,0.50005 0 0 0 -0.006,-0.004 l -1.95313,-1.95313 a 0.50005,0.50005 0 0 0 -0.35937,-0.15234 z m -11.00195,2.99805 A 0.50005,0.50005 0 0 0 426,145.5 v 2.93945 A 0.50005,0.50005 0 0 0 426.56055,149 H 429.5 a 0.50005,0.50005 0 1 0 0,-1 h -1.79297 l 1.14649,-1.14648 a 0.50005,0.50005 0 1 0 -0.70704,-0.70704 L 427,147.29297 V 145.5 a 0.50005,0.50005 0 0 0 -0.50781,-0.50781 z"
           id="path21358"
           inkscape:connector-curvature="0" />
        <path
           id="circle21362"
           d="M 432.99635,144 A 1.99635,1.99635 0 0 1 431,145.99635 1.99635,1.99635 0 0 1 429.00365,144 1.99635,1.99635 0 0 1 431,142.00365 1.99635,1.99635 0 0 1 432.99635,144 Z"
           style="display:inline;opacity:1;vector-effect:none;fill:#ffffff;fill-opacity:1;stroke:none;stroke-width:1;stroke-linecap:square;stroke-linejoin:round;stroke-miterlimit:4;stroke-dasharray:none;stroke-dashoffset:0;stroke-opacity:1;marker:none;paint-order:fill markers stroke;enable-background:new"
           inkscape:connector-curvature="0" />
      </g>
    </g>
  </g>
</svg>
