<svg
   inkscape:export-ydpi="96"
   inkscape:export-xdpi="96"
   inkscape:export-filename="blender_icons.png"
   style="display:inline;enable-background:new"
   inkscape:output_extension="org.inkscape.output.svg.inkscape"
   sodipodi:docname="blender_icons.svg"
   version="1.0"
   inkscape:version="1.2 (dc2aeda, 2022-05-15)"
   sodipodi:version="0.32"
   id="svg2"
   height="14"
   width="15"
   xmlns:inkscape="http://www.inkscape.org/namespaces/inkscape"
   xmlns:sodipodi="http://sodipodi.sourceforge.net/DTD/sodipodi-0.dtd"
   xmlns="http://www.w3.org/2000/svg"
   xmlns:svg="http://www.w3.org/2000/svg"
   xmlns:rdf="http://www.w3.org/1999/02/22-rdf-syntax-ns#"
   xmlns:cc="http://creativecommons.org/ns#"
   xmlns:dc="http://purl.org/dc/elements/1.1/">
  <metadata
     id="metadata34337">
    <rdf:RDF>
      <cc:Work
         rdf:about="">
        <dc:format>image/svg+xml</dc:format>
        <dc:type
           rdf:resource="http://purl.org/dc/dcmitype/StillImage" />
        <dc:title />
      </cc:Work>
    </rdf:RDF>
  </metadata>
  <sodipodi:namedview
     inkscape:pagecheckerboard="true"
     inkscape:document-rotation="0"
     pagecolor="#808080"
     bordercolor="#666666"
     borderopacity="1"
     objecttolerance="10"
     gridtolerance="10"
     guidetolerance="10"
     inkscape:pageopacity="0"
     inkscape:pageshadow="2"
     inkscape:window-width="1728"
     inkscape:window-height="1051"
     id="namedview34335"
     showgrid="false"
     inkscape:zoom="1.7115805"
     inkscape:cx="217.6351"
     inkscape:cy="369.54148"
     inkscape:window-x="767"
     inkscape:window-y="92"
     inkscape:window-maximized="0"
     inkscape:current-layer="layer4"
     inkscape:showpageshadow="2"
     inkscape:deskcolor="#808080" />
  <defs
     id="defs4" />
  <g
     inkscape:groupmode="layer"
     id="layer8"
     inkscape:label="icons"
     style="display:inline"
     transform="translate(-89,-263.00005)">
    <g
       transform="translate(-336,-84)"
       id="g28475"
       style="display:inline;enable-background:new"
       inkscape:label="M-5">
      <path
         style="color:#000000;font-style:normal;font-variant:normal;font-weight:normal;font-stretch:normal;font-size:medium;line-height:normal;font-family:sans-serif;font-variant-ligatures:normal;font-variant-position:normal;font-variant-caps:normal;font-variant-numeric:normal;font-variant-alternates:normal;font-feature-settings:normal;text-indent:0;text-align:start;text-decoration:none;text-decoration-line:none;text-decoration-style:solid;text-decoration-color:#000000;letter-spacing:normal;word-spacing:normal;text-transform:none;writing-mode:lr-tb;direction:ltr;text-orientation:mixed;dominant-baseline:auto;baseline-shift:baseline;text-anchor:start;white-space:normal;shape-padding:0;clip-rule:nonzero;display:inline;overflow:visible;visibility:visible;opacity:0.6;isolation:auto;mix-blend-mode:normal;color-interpolation:sRGB;color-interpolation-filters:linearRGB;solid-color:#000000;solid-opacity:1;vector-effect:none;fill:#ffffff;fill-opacity:1;fill-rule:nonzero;stroke:none;stroke-width:1;stroke-linecap:round;stroke-linejoin:round;stroke-miterlimit:4;stroke-dasharray:none;stroke-dashoffset:0;stroke-opacity:1;marker:none;paint-order:fill markers stroke;color-rendering:auto;image-rendering:auto;shape-rendering:auto;text-rendering:auto;enable-background:accumulate"
         d="m 427.5,348 c -1.37479,0 -2.5,1.12521 -2.5,2.5 0,1.17958 0.69047,1.86035 1.13281,2.33984 0.59193,0.64165 1.20449,1.21721 1.66016,1.66016 l -0.89649,0.89648 c -0.91207,0.91207 -1.15649,2.32468 -0.5625,3.35352 0.56456,0.97783 1.72188,1.4563 2.8125,1.16406 C 430.23711,359.62183 431,358.6291 431,357.5 a 0.50005,0.50005 0 1 0 -1,0 c 0,0.68132 -0.45321,1.27287 -1.11133,1.44922 -0.65811,0.17634 -1.34683,-0.10917 -1.6875,-0.69922 -0.31121,-0.53904 -0.18558,-1.55855 0.40235,-2.14648 l 1.25,-1.25 a 0.50005,0.50005 0 0 0 0,-0.70704 c -0.4316,-0.43159 -1.30799,-1.251 -1.98633,-1.98632 C 426.38701,351.63965 426,351.32042 426,350.5 c 0,-0.83435 0.66565,-1.5 1.5,-1.5 1.16667,0 2.02863,1.23566 2.64648,1.85352 a 0.50005,0.50005 0 1 0 0.70704,-0.70704 C 430.47137,349.76434 429.33333,348 427.5,348 Z"
         id="path28463"
         inkscape:connector-curvature="0" />
      <path
         id="path28468"
         style="color:#000000;font-style:normal;font-variant:normal;font-weight:normal;font-stretch:normal;font-size:medium;line-height:normal;font-family:sans-serif;font-variant-ligatures:normal;font-variant-position:normal;font-variant-caps:normal;font-variant-numeric:normal;font-variant-alternates:normal;font-feature-settings:normal;text-indent:0;text-align:start;text-decoration:none;text-decoration-line:none;text-decoration-style:solid;text-decoration-color:#000000;letter-spacing:normal;word-spacing:normal;text-transform:none;writing-mode:lr-tb;direction:ltr;text-orientation:mixed;dominant-baseline:auto;baseline-shift:baseline;text-anchor:start;white-space:normal;shape-padding:0;clip-rule:nonzero;display:inline;overflow:visible;visibility:visible;opacity:1;isolation:auto;mix-blend-mode:normal;color-interpolation:sRGB;color-interpolation-filters:linearRGB;solid-color:#000000;solid-opacity:1;vector-effect:none;fill:#ffffff;fill-opacity:1;fill-rule:nonzero;stroke:none;stroke-width:1;stroke-linecap:round;stroke-linejoin:round;stroke-miterlimit:4;stroke-dasharray:none;stroke-dashoffset:0;stroke-opacity:1;marker:none;paint-order:fill markers stroke;color-rendering:auto;image-rendering:auto;shape-rendering:auto;text-rendering:auto;enable-background:accumulate"
         d="m 437.5,348 c -1.83333,0 -2.97137,1.76434 -3.35352,2.14648 a 0.50005,0.50005 0 1 0 0.70704,0.70704 C 435.47137,350.23566 436.33333,349 437.5,349 c 0.83435,0 1.5,0.66565 1.5,1.5 0,0.82042 -0.38701,1.13965 -0.86719,1.66016 -0.67834,0.73532 -1.55473,1.55473 -1.98633,1.98632 a 0.50005,0.50005 0 0 0 0,0.70704 l 1.25,1.25 c 0.58793,0.58793 0.71356,1.60744 0.40235,2.14648 -0.34067,0.59005 -1.02939,0.87556 -1.6875,0.69922 C 435.45321,358.77287 435,358.18132 435,357.5 a 0.50005,0.50005 0 1 0 -1,0 c 0,1.1291 0.76289,2.12183 1.85352,2.41406 1.09062,0.29224 2.24794,-0.18623 2.8125,-1.16406 0.59399,-1.02884 0.34957,-2.44145 -0.5625,-3.35352 L 437.20703,354.5 c 0.45567,-0.44295 1.06823,-1.01851 1.66016,-1.66016 C 439.30953,352.36035 440,351.67958 440,350.5 c 0,-1.37479 -1.12521,-2.5 -2.5,-2.5 z m -4.5,4.00005 v -2 h -1 v 2 z m 0,-3 v -2 h -1 v 2 z m 0,12 v -2 h -1 v 2 z m 0,-3 v -2 h -1 v 2 z m 0,-3 v -2 h -1 v 2 z" />
    </g>
  </g>
</svg>
